# xmcd CD database file
# Generated: la syys   28 16:14:03 2002 by KSCD
# 
# Track frame offsets:
#       150
#       24907
#       49711
#       78359
#       100673
#       121831
#       146494
#       176340
#       205406
#       225133
#       252294
#       278499
#
# Disc length: 4000 seconds
#
# Revision: 9
# Processed by: cddbd v1.4PL0 Copyright (c) Steve Scherf et al.
# Submitted via: Kscd 1.3.3
#
DISCID=8a0f9e0c
DTITLE=Etta James - Heart Of A Woman
DYEAR=1900
DGENRE=
TTITLE0=You Don't Know What Love Is
TTITLE1=Good Morning Heartache
TTITLE2=My Old Flame
TTITLE3=Say It Isn't So
TTITLE4=At Last
TTITLE5=Tenderly
TTITLE6=I Only Have Eyes For You
TTITLE7=I Got It Bad And It Ain't Good
TTITLE8=You Go To My Head
TTITLE9=Sunday Kind Of Love
TTITLE10=If It's The Last Thing I Do
TTITLE11=Only Women Bleed
EXTD=
EXTT0=
EXTT1=
EXTT2=
EXTT3=
EXTT4=
EXTT5=
EXTT6=
EXTT7=
EXTT8=
EXTT9=
EXTT10=
EXTT11=
PLAYORDER=
